<svg xmlns="http://www.w3.org/2000/svg" xmlns:xlink="http://www.w3.org/1999/xlink" width="314" height="23" viewBox="0 0 314 23">
  <defs>
    <clipPath id="clip-path">
      <rect width="314" height="23" fill="none"/>
    </clipPath>
    <radialGradient id="radial-gradient" cx="0.5" cy="0.5" r="0.5" gradientUnits="objectBoundingBox">
      <stop offset="0" stop-color="#fff"/>
      <stop offset="1" stop-color="#959595"/>
    </radialGradient>
  </defs>
  <g id="Repeat_Grid_1" data-name="Repeat Grid 1" clip-path="url(#clip-path)">
    <g id="Group_15783" data-name="Group 15783" transform="translate(-1005 -124)">
      <circle id="Ellipse_21" data-name="Ellipse 21" cx="5" cy="5" r="5" transform="translate(1005 137)" fill="#7c7773"/>
      <g id="Group_15782" data-name="Group 15782" transform="translate(0 2)">
        <rect id="Rectangle_7689" data-name="Rectangle 7689" width="3" height="20" rx="1.5" transform="translate(1006 122)" fill="url(#radial-gradient)"/>
        <rect id="Rectangle_7690" data-name="Rectangle 7690" width="3" height="20" rx="1.5" transform="translate(1011 122)" fill="url(#radial-gradient)"/>
      </g>
    </g>
    <g id="Group_15783-2" data-name="Group 15783" transform="translate(-980 -124)">
      <circle id="Ellipse_21-2" data-name="Ellipse 21" cx="5" cy="5" r="5" transform="translate(1005 137)" fill="#7c7773"/>
      <g id="Group_15782-2" data-name="Group 15782" transform="translate(0 2)">
        <rect id="Rectangle_7689-2" data-name="Rectangle 7689" width="3" height="20" rx="1.5" transform="translate(1006 122)" fill="url(#radial-gradient)"/>
        <rect id="Rectangle_7690-2" data-name="Rectangle 7690" width="3" height="20" rx="1.5" transform="translate(1011 122)" fill="url(#radial-gradient)"/>
      </g>
    </g>
    <g id="Group_15783-3" data-name="Group 15783" transform="translate(-955 -124)">
      <circle id="Ellipse_21-3" data-name="Ellipse 21" cx="5" cy="5" r="5" transform="translate(1005 137)" fill="#7c7773"/>
      <g id="Group_15782-3" data-name="Group 15782" transform="translate(0 2)">
        <rect id="Rectangle_7689-3" data-name="Rectangle 7689" width="3" height="20" rx="1.5" transform="translate(1006 122)" fill="url(#radial-gradient)"/>
        <rect id="Rectangle_7690-3" data-name="Rectangle 7690" width="3" height="20" rx="1.5" transform="translate(1011 122)" fill="url(#radial-gradient)"/>
      </g>
    </g>
    <g id="Group_15783-4" data-name="Group 15783" transform="translate(-930 -124)">
      <circle id="Ellipse_21-4" data-name="Ellipse 21" cx="5" cy="5" r="5" transform="translate(1005 137)" fill="#7c7773"/>
      <g id="Group_15782-4" data-name="Group 15782" transform="translate(0 2)">
        <rect id="Rectangle_7689-4" data-name="Rectangle 7689" width="3" height="20" rx="1.5" transform="translate(1006 122)" fill="url(#radial-gradient)"/>
        <rect id="Rectangle_7690-4" data-name="Rectangle 7690" width="3" height="20" rx="1.5" transform="translate(1011 122)" fill="url(#radial-gradient)"/>
      </g>
    </g>
    <g id="Group_15783-5" data-name="Group 15783" transform="translate(-905 -124)">
      <circle id="Ellipse_21-5" data-name="Ellipse 21" cx="5" cy="5" r="5" transform="translate(1005 137)" fill="#7c7773"/>
      <g id="Group_15782-5" data-name="Group 15782" transform="translate(0 2)">
        <rect id="Rectangle_7689-5" data-name="Rectangle 7689" width="3" height="20" rx="1.5" transform="translate(1006 122)" fill="url(#radial-gradient)"/>
        <rect id="Rectangle_7690-5" data-name="Rectangle 7690" width="3" height="20" rx="1.5" transform="translate(1011 122)" fill="url(#radial-gradient)"/>
      </g>
    </g>
    <g id="Group_15783-6" data-name="Group 15783" transform="translate(-880 -124)">
      <circle id="Ellipse_21-6" data-name="Ellipse 21" cx="5" cy="5" r="5" transform="translate(1005 137)" fill="#7c7773"/>
      <g id="Group_15782-6" data-name="Group 15782" transform="translate(0 2)">
        <rect id="Rectangle_7689-6" data-name="Rectangle 7689" width="3" height="20" rx="1.5" transform="translate(1006 122)" fill="url(#radial-gradient)"/>
        <rect id="Rectangle_7690-6" data-name="Rectangle 7690" width="3" height="20" rx="1.5" transform="translate(1011 122)" fill="url(#radial-gradient)"/>
      </g>
    </g>
    <g id="Group_15783-7" data-name="Group 15783" transform="translate(-855 -124)">
      <circle id="Ellipse_21-7" data-name="Ellipse 21" cx="5" cy="5" r="5" transform="translate(1005 137)" fill="#7c7773"/>
      <g id="Group_15782-7" data-name="Group 15782" transform="translate(0 2)">
        <rect id="Rectangle_7689-7" data-name="Rectangle 7689" width="3" height="20" rx="1.5" transform="translate(1006 122)" fill="url(#radial-gradient)"/>
        <rect id="Rectangle_7690-7" data-name="Rectangle 7690" width="3" height="20" rx="1.5" transform="translate(1011 122)" fill="url(#radial-gradient)"/>
      </g>
    </g>
    <g id="Group_15783-8" data-name="Group 15783" transform="translate(-830 -124)">
      <circle id="Ellipse_21-8" data-name="Ellipse 21" cx="5" cy="5" r="5" transform="translate(1005 137)" fill="#7c7773"/>
      <g id="Group_15782-8" data-name="Group 15782" transform="translate(0 2)">
        <rect id="Rectangle_7689-8" data-name="Rectangle 7689" width="3" height="20" rx="1.5" transform="translate(1006 122)" fill="url(#radial-gradient)"/>
        <rect id="Rectangle_7690-8" data-name="Rectangle 7690" width="3" height="20" rx="1.5" transform="translate(1011 122)" fill="url(#radial-gradient)"/>
      </g>
    </g>
    <g id="Group_15783-9" data-name="Group 15783" transform="translate(-805 -124)">
      <circle id="Ellipse_21-9" data-name="Ellipse 21" cx="5" cy="5" r="5" transform="translate(1005 137)" fill="#7c7773"/>
      <g id="Group_15782-9" data-name="Group 15782" transform="translate(0 2)">
        <rect id="Rectangle_7689-9" data-name="Rectangle 7689" width="3" height="20" rx="1.5" transform="translate(1006 122)" fill="url(#radial-gradient)"/>
        <rect id="Rectangle_7690-9" data-name="Rectangle 7690" width="3" height="20" rx="1.5" transform="translate(1011 122)" fill="url(#radial-gradient)"/>
      </g>
    </g>
    <g id="Group_15783-10" data-name="Group 15783" transform="translate(-780 -124)">
      <circle id="Ellipse_21-10" data-name="Ellipse 21" cx="5" cy="5" r="5" transform="translate(1005 137)" fill="#7c7773"/>
      <g id="Group_15782-10" data-name="Group 15782" transform="translate(0 2)">
        <rect id="Rectangle_7689-10" data-name="Rectangle 7689" width="3" height="20" rx="1.5" transform="translate(1006 122)" fill="url(#radial-gradient)"/>
        <rect id="Rectangle_7690-10" data-name="Rectangle 7690" width="3" height="20" rx="1.5" transform="translate(1011 122)" fill="url(#radial-gradient)"/>
      </g>
    </g>
    <g id="Group_15783-11" data-name="Group 15783" transform="translate(-755 -124)">
      <circle id="Ellipse_21-11" data-name="Ellipse 21" cx="5" cy="5" r="5" transform="translate(1005 137)" fill="#7c7773"/>
      <g id="Group_15782-11" data-name="Group 15782" transform="translate(0 2)">
        <rect id="Rectangle_7689-11" data-name="Rectangle 7689" width="3" height="20" rx="1.5" transform="translate(1006 122)" fill="url(#radial-gradient)"/>
        <rect id="Rectangle_7690-11" data-name="Rectangle 7690" width="3" height="20" rx="1.5" transform="translate(1011 122)" fill="url(#radial-gradient)"/>
      </g>
    </g>
    <g id="Group_15783-12" data-name="Group 15783" transform="translate(-730 -124)">
      <circle id="Ellipse_21-12" data-name="Ellipse 21" cx="5" cy="5" r="5" transform="translate(1005 137)" fill="#7c7773"/>
      <g id="Group_15782-12" data-name="Group 15782" transform="translate(0 2)">
        <rect id="Rectangle_7689-12" data-name="Rectangle 7689" width="3" height="20" rx="1.5" transform="translate(1006 122)" fill="url(#radial-gradient)"/>
        <rect id="Rectangle_7690-12" data-name="Rectangle 7690" width="3" height="20" rx="1.5" transform="translate(1011 122)" fill="url(#radial-gradient)"/>
      </g>
    </g>
    <g id="Group_15783-13" data-name="Group 15783" transform="translate(-705 -124)">
      <circle id="Ellipse_21-13" data-name="Ellipse 21" cx="5" cy="5" r="5" transform="translate(1005 137)" fill="#7c7773"/>
      <g id="Group_15782-13" data-name="Group 15782" transform="translate(0 2)">
        <rect id="Rectangle_7689-13" data-name="Rectangle 7689" width="3" height="20" rx="1.5" transform="translate(1006 122)" fill="url(#radial-gradient)"/>
        <rect id="Rectangle_7690-13" data-name="Rectangle 7690" width="3" height="20" rx="1.5" transform="translate(1011 122)" fill="url(#radial-gradient)"/>
      </g>
    </g>
  </g>
</svg>
